<svg xmlns="http://www.w3.org/2000/svg" version="1.1" viewBox="0 0 288 288"><svg xmlns="http://www.w3.org/2000/svg" viewBox="0 0 24 24"><path fill="#59195d" d="M23.95 12.286q-.002-.007-.003-.013l-2-4a.5.5 0 0 0-.447-.276H17v-1h.5a.5.5 0 1 0 .368-.838l-5.5-6a.515.515 0 0 0-.737 0l-5.5 6a.5.5 0 0 0 .369.838H7v1.001H2.5a.5.5 0 0 0-.447.276l-2 4-.003.012a.5.5 0 0 0-.05.211v9a.5.5 0 0 0 .5.5H7v1h-.5a.5.5 0 0 0 0 1h11a.5.5 0 0 0 0-1H17v-1h6.5a.5.5 0 0 0 .5-.5v-9a.5.5 0 0 0-.05-.211M7 20.997H1v-8h6zm0-9H1.309l1.5-3H7zm6 11h-2v-4h2zm3 0h-2v-4.5a.5.5 0 0 0-.5-.5h-3a.5.5 0 0 0-.5.5v4.5H8v-16h8zm-8.363-17 4.364-4.76 4.363 4.76zm9.363 3h4.191l1.5 3H17zm6 12h-6v-8h6zm-20.5-2h3a.5.5 0 0 0 .5-.5v-3a.5.5 0 0 0-.5-.5h-3a.5.5 0 0 0-.5.5v3a.5.5 0 0 0 .5.5m.5-3h2v2H3zm15.5 3h3a.5.5 0 0 0 .5-.5v-3a.5.5 0 0 0-.5-.5h-3a.5.5 0 0 0-.5.5v3a.5.5 0 0 0 .5.5m.5-3h2v2h-2zm-6.854-4.146a.5.5 0 0 0 .708 0 .5.5 0 0 0 0-.707l-.354-.354v-.793a.5.5 0 0 0-1 0v1a.5.5 0 0 0 .146.354zM12 13.997c1.654 0 3-1.346 3-3s-1.346-3-3-3-3 1.346-3 3 1.346 3 3 3m0-5c1.103 0 2 .897 2 2s-.897 2-2 2-2-.897-2-2 .897-2 2-2" class="color000 svgShape"/></svg></svg>